<svg width="77" height="77" viewBox="0 0 77 77" fill="none" xmlns="http://www.w3.org/2000/svg">
<path d="M70.854 49.71H5.051C2.777 49.71 0.916 51.65 0.916 54.023V57.527C0.916 59.899 2.777 61.84 5.051 61.84H5.981V62.893C5.981 68.429 10.322 72.958 15.629 72.958H60.275C65.581 72.958 69.923 68.429 69.923 62.893V61.84H70.853C73.127 61.84 74.988 59.899 74.988 57.527V54.023C74.988 51.65 73.128 49.71 70.854 49.71ZM67.006 62.894C67.006 66.765 63.987 69.915 60.276 69.915H15.629C11.918 69.915 8.898 66.765 8.898 62.894V61.841H67.005V62.894H67.006ZM72.071 57.527C72.071 58.215 71.513 58.798 70.853 58.798H5.051C4.391 58.798 3.834 58.216 3.834 57.527V54.023C3.834 53.335 4.392 52.752 5.051 52.752H70.853C71.513 52.752 72.071 53.334 72.071 54.023V57.527ZM16.634 41.406L21.957 45.465L27.283 41.406L32.611 45.465L37.939 41.406L43.267 45.465L48.596 41.406L53.923 45.465L59.253 41.405L64.589 45.464L70.783 40.752L69.063 38.293L64.589 41.696L59.253 37.639L53.923 41.695L48.596 37.638L43.267 41.695L37.939 37.638L32.611 41.695L27.283 37.638L21.958 41.695L16.635 37.638L11.308 41.695L6.841 38.294L5.12 40.751L11.308 45.465L16.634 41.406ZM8.978 34.544H69.855C69.896 33.925 69.924 33.303 69.924 32.674C69.924 32.28 69.908 31.891 69.892 31.501C69.227 15.657 55.186 3 37.952 3C20.719 3 6.677 15.657 6.013 31.501C5.996 31.891 5.981 32.281 5.981 32.674C5.981 33.303 6.009 33.925 6.051 34.544H8.978ZM37.952 6.043C53.543 6.043 66.302 17.359 66.973 31.501H8.931C9.604 17.359 22.361 6.043 37.952 6.043Z" fill="#81B3D2"/>
<path d="M37.952 20.29C39.0262 20.29 39.897 19.3811 39.897 18.26C39.897 17.1389 39.0262 16.23 37.952 16.23C36.8778 16.23 36.007 17.1389 36.007 18.26C36.007 19.3811 36.8778 20.29 37.952 20.29Z" fill="#81B3D2"/>
<path d="M30.172 15.26C31.2467 15.26 32.118 14.3511 32.118 13.23C32.118 12.1089 31.2467 11.2 30.172 11.2C29.0973 11.2 28.226 12.1089 28.226 13.23C28.226 14.3511 29.0973 15.26 30.172 15.26Z" fill="#81B3D2"/>
<path d="M45.732 15.26C46.8067 15.26 47.678 14.3511 47.678 13.23C47.678 12.1089 46.8067 11.2 45.732 11.2C44.6572 11.2 43.786 12.1089 43.786 13.23C43.786 14.3511 44.6572 15.26 45.732 15.26Z" fill="#81B3D2"/>
</svg>
