<svg width="77" height="77" viewBox="0 0 77 77" fill="none" xmlns="http://www.w3.org/2000/svg">
<path d="M30.656 68.033H46.656V44.21H30.656V68.033ZM33.593 47.134H43.718V65.11H33.593V47.134Z" fill="#81B3D2"/>
<path d="M73.771 42.253L75.847 40.185L65.939 30.32V3H52.127V16.567L38.5 3L1.15199 40.185L3.22899 42.253L11.061 34.458V72.076H7.12399V75H70.999V72.076H65.94V34.458L73.771 42.253ZM63.002 72.076H13.999V31.534L38.5 7.149L63.002 31.534V72.076ZM63.002 27.394L55.064 19.492V5.924H63.002V27.394Z" fill="#81B3D2"/>
<path d="M30.906 30.08C30.906 34.341 34.376 37.793 38.656 37.793C42.935 37.793 46.406 34.341 46.406 30.08C46.406 25.821 42.935 22.367 38.656 22.367C34.375 22.367 30.906 25.821 30.906 30.08ZM38.656 25.135C41.4 25.135 43.625 27.349 43.625 30.08C43.625 32.812 41.4 35.028 38.656 35.028C35.91 35.028 33.686 32.812 33.686 30.08C33.686 27.349 35.911 25.135 38.656 25.135ZM18.061 44.21H21.061V48.129H18.061V44.21ZM23.999 44.21H26.999V48.129H23.999V44.21ZM18.061 50.182H21.061V54.101H18.061V50.182ZM23.999 50.182H26.999V54.101H23.999V50.182ZM49.998 44.21H52.998V48.129H49.998V44.21ZM55.936 44.21H58.936V48.129H55.936V44.21ZM49.998 50.182H52.998V54.101H49.998V50.182ZM55.936 50.182H58.936V54.101H55.936V50.182Z" fill="#81B3D2"/>
</svg>
