<svg width="77" height="77" viewBox="0 0 77 77" fill="none" xmlns="http://www.w3.org/2000/svg">
<path fill-rule="evenodd" clip-rule="evenodd" d="M69.097 23.501H44.312C58.125 16.602 59.229 12.25 58.72 9.816C57.558 5.853 53.028 2.793 48.718 4.409C43.149 6.498 41.581 14.797 40.074 20.796C38.15 14.726 36.29 6.982 31.938 3.059C30.677 1.921 28.843 0.794999 26.175 1.031C22.149 1.387 16.373 6.413 18.717 12.012C20.968 17.39 28.404 20.789 33.295 23.501H10.879C9.29355 23.5026 8.00715 24.7846 8 26.37V37.692C8.00715 39.2774 9.29355 40.5594 10.879 40.561H11.153V77H68.994V40.561H69.097C70.6828 40.5599 71.9698 39.2778 71.977 37.692V26.37C71.9698 24.7842 70.6828 23.5021 69.097 23.501ZM50.413 6.944C52.516 6.634 55.395 8.243 55.668 10.153C56.061 12.909 52.268 15.408 50.582 16.574C48.059 18.318 45.654 19.217 43.295 20.629C44.179 16.939 45.844 7.618 50.413 6.944ZM27.531 16.912C25.306 15.427 20.987 12.481 21.091 9.141C21.203 5.546 26.834 2.571 29.905 5.255C33.761 8.626 35.618 16.36 37.024 21.812C33.775 20.273 30.696 19.024 27.531 16.912ZM33.503 74.026H14.136V40.561H33.504V74.026H33.503ZM33.503 37.524H11.046V26.538H33.503V37.524ZM43.66 37.524V74.027H36.486V26.538H43.66V37.524ZM66.011 74.026H46.644V40.561H66.011V74.026ZM68.931 37.524H46.644V26.538H68.931V37.524Z" fill="#81B3D2"/>
</svg>
